<svg width="1366" height="525" viewBox="0 0 1366 525" fill="none" xmlns="http://www.w3.org/2000/svg">
<ellipse cx="1017.18" cy="507.556" rx="1017.18" ry="507.556" transform="matrix(0.996665 0.0815979 0.0815979 -0.996665 -853.642 1298.64)" fill="#389ED9" fill-opacity="0.06"/>
<path d="M1297.26 656.574C1234.36 524.158 1088.86 439.889 904.326 410.769C719.801 381.649 496.326 407.693 277.655 495.832C58.9845 583.97 -113.435 717.497 -215.439 862.106C-317.448 1006.72 -348.994 1162.35 -286.096 1294.77C-223.198 1427.18 -77.6988 1511.45 106.835 1540.57C291.361 1569.69 514.835 1543.65 733.506 1455.51C952.177 1367.37 1124.6 1233.84 1226.6 1089.23C1328.61 944.619 1360.16 788.99 1297.26 656.574Z" stroke="#D9ECF6"/>
<ellipse cx="1017.18" cy="507.556" rx="1017.18" ry="507.556" transform="matrix(0.996665 0.0815979 0.0815979 -0.996665 -1188.94 1361.06)" fill="#389ED9" fill-opacity="0.06"/>
<path d="M879.489 1069.84C890.902 930.443 787.996 794.834 612.082 688.301C436.197 581.786 187.465 504.433 -92.4237 481.518C-372.312 458.603 -630.314 494.47 -821.182 570.958C-1012.08 647.46 -1135.67 764.525 -1147.09 903.925C-1158.5 1043.32 -1055.59 1178.93 -879.679 1285.47C-703.794 1391.98 -455.062 1469.33 -175.173 1492.25C104.716 1515.16 362.717 1479.3 553.585 1402.81C744.484 1326.31 868.076 1209.24 879.489 1069.84Z" stroke="#A4D0EA"/>
</svg>
