<svg class="w-screen scale-150 -top-[22%] absolute -z-10" width="1366" height="998" viewBox="0 0 1366 998" fill="none" xmlns="http://www.w3.org/2000/svg">
  <ellipse cx="755.465" cy="504.242" rx="777.749" ry="417.149" transform="rotate(-4.28823 755.465 504.242)" fill="#389ED9" fill-opacity="0.06"/>
  <path d="M1395.33 342.441C1403.92 457.019 1318.34 567.887 1172.72 654.481C1027.12 741.058 821.648 803.277 
  590.803 820.586C359.958 837.896 147.502 807.016 -9.3763 743.119C-166.286 679.21 -267.443 582.345 -276.034 
  467.767C-284.626 353.189 -199.046 242.321 -53.4212 155.727C92.1738 69.1496 297.65 6.93142 528.495 -10.3782C759.34 
  -27.6878 971.796 3.19227 1128.67 67.0886C1285.58 130.998 1386.74 227.863 1395.33 342.441Z" stroke="#A4D0EA"/>
  <ellipse cx="601.782" cy="441.945" rx="880.783" ry="417.149" transform="rotate(-4.28823 601.782 441.945)" fill="#389ED9" fill-opacity="0.06"/>
</svg>