<svg xmlns="http://www.w3.org/2000/svg" fill="none" viewBox="-326.56 241.31 2410.83 1054.65">
<ellipse cx="752.103" cy="749.86" rx="973.394" ry="406.499" transform="rotate(173.843 752.103 749.86)" fill="#389ED9" fill-opacity="0.06">
</ellipse><path d="M-296.302 614.965C-237.303 506.475 -99.0319 433.467 77.0222 403.223C253.058 372.984 466.745 385.529 676.341 448.055C885.937 510.58 1051.71 611.234 1150.3 723.399C1248.91 835.577 1280.25 959.185 1221.26 1067.68C1162.26 1176.17 1023.99 1249.17 847.931 1279.42C671.895 1309.66 458.208 1297.11 248.612 1234.59C39.0161 1172.06 -126.757 1071.41 -225.35 959.242C-323.953 847.064 -355.301 723.456 -296.302 614.965Z" stroke="#D9ECF6"></path><ellipse cx="1072.9" cy="787.402" rx="973.394" ry="406.499" transform="rotate(173.843 1072.9 787.402)" fill="#389ED9" fill-opacity="0.06"></ellipse><path d="M106.066 930.799C100.065 875.17 121.337 819.217 165.038 765.649C208.74 712.08 274.849 660.928 358.436 614.932C525.609 522.94 762.606 451.618 1029.8 422.793C1297 393.968 1543.75 413.104 1726.7 467.325C1818.17 494.436 1893.67 530.311 1947.79 573.327C2001.91 616.342 2034.63 666.471 2040.63 722.1C2046.63 777.729 2025.36 833.682 1981.66 887.25C1937.96 940.819 1871.85 991.971 1788.26 1037.97C1621.09 1129.96 1384.09 1201.28 1116.89 1230.11C849.698 1258.93 602.942 1239.8 419.996 1185.57C328.522 1158.46 253.026 1122.59 198.904 1079.57C144.784 1036.56 112.067 986.428 106.066 930.799Z" stroke="#A4D0EA">
</path>
</svg>